HIERARCHY
ROOT pelvis
{
  OFFSET 0 100 0
  CHANNELS 6 Xposition Yposition Zposition Zrotation Xrotation Yrotation
  JOINT pelvis_right_femur
  {
    OFFSET -10.78128 -3.44521 -0.5502486
    CHANNELS 3 Zrotation Xrotation Yrotation
    JOINT right_femur_tibia
    {
      OFFSET -0.8047443 -44.0398 -0.1307829
      CHANNELS 3 Zrotation Xrotation Yrotation
      JOINT right_tibia_foot
      {
        OFFSET 3.006224 -47.83518 -5
        CHANNELS 3 Zrotation Xrotation Yrotation
        End Site
        {
          OFFSET 0 -5 15
        }
      }
    }
  }
  JOINT pelvis_left_femur
  {
    OFFSET 10.78128 -3.44521 -0.5502486
    CHANNELS 3 Zrotation Xrotation Yrotation
    JOINT left_femur_tibia
    {
      OFFSET 0.8047443 -44.0398 -0.1307829
      CHANNELS 3 Zrotation Xrotation Yrotation
      JOINT left_tibia_foot
      {
        OFFSET -4.370144 -48.10324 -4.275266
        CHANNELS 3 Zrotation Xrotation Yrotation
        End Site
        {
          OFFSET 0 -5 15
        }
      }
    }
  }
  JOINT pelvis_spine1
  {
    OFFSET 0 6.468898 -3.129235
    CHANNELS 3 Zrotation Xrotation Yrotation
    JOINT spine1
    {
      OFFSET 0 23.15396 4.99043
      CHANNELS 3 Zrotation Xrotation Yrotation
      JOINT spine2
      {
        OFFSET 0 20.79997 -5.064912
        CHANNELS 3 Zrotation Xrotation Yrotation
        JOINT neck
        {
          OFFSET 0 14.38658 9.616178
          CHANNELS 3 Zrotation Xrotation Yrotation
          End Site
          {
            OFFSET 0 20 0
          }
        }
      }
      JOINT right_manubrium
      {
        OFFSET -5.722621 16.35077 3.967754
        CHANNELS 3 Zrotation Xrotation Yrotation
        JOINT right_clavicle
        {
          OFFSET -13.16364 1.694482 -4.693211
          CHANNELS 3 Zrotation Xrotation Yrotation
          JOINT right_humerus
          {
            OFFSET -28.5034 -0.3100689 -2.792744
            CHANNELS 3 Zrotation Xrotation Yrotation
            JOINT right_radius
            {
              OFFSET -25.15693 0.02248979 -1.271978
              CHANNELS 3 Zrotation Xrotation Yrotation
              End Site
              {
                OFFSET -15 0 0
              }
            }
          }
        }
      }
      JOINT left_manubrium
      {
        OFFSET 5.722621 16.35077 3.967754
        CHANNELS 3 Zrotation Xrotation Yrotation
        JOINT left_clavicle
        {
          OFFSET 13.16364 1.694482 -4.693211
          CHANNELS 3 Zrotation Xrotation Yrotation
          JOINT left_humerus
          {
            OFFSET 29.39168 -1.063119 -2.237045
            CHANNELS 3 Zrotation Xrotation Yrotation
            JOINT left_radius
            {
              OFFSET 24.59957 -0.9528479 0.9047498
              CHANNELS 3 Zrotation Xrotation Yrotation
              End Site
              {
                OFFSET 15 -0 -0
              }
            }
          }
        }
      }
    }
  }
}
MOTION
Frames: 21
Frame Time: 0.0416666666667
0 103.5113 0 0.9927557 -0.7874925 -0.03027097 3.244234 -17.24231 8.664439 -0 35.80535 -0 -5.158313 -15.99538 -3.81617 -6.813073 11.60573 -23.34179 -0 5.289103 -0 5.171923 -18.93323 25.04611 -3.223862 -4.443525 6.312658 1.787698 10.18465 -7.093786 1.816048 22.46413 4.947485 1.392039 -23.6461 9.074101 5.499655 -21.20615 10.77565 83.88535 35.72337 -15.62513 -0 0 17.92982 -8.065671 7.703643 4.654349 6.195524 -20.66443 0.08321416 -94.22362 22.64617 25.057 0 0 -11.79671 12.88431 19.38909 -0.2396794
0.228533 103.549 1.577216 0.01229259 -0.4686899 -0.1561345 4.601762 -20.20711 9.151252 -0 36.39549 -0 -5.874204 -14.36862 -4.273899 -5.909212 11.7239 -22.83441 -0 6.182619 -0 3.23687 -20.47533 24.07646 -3.022808 -3.994206 6.066185 1.982878 10.20999 -7.193052 1.712564 22.20759 5.29324 1.689144 -24.04975 9.12716 5.523347 -20.78408 10.96004 84.37864 35.82314 -16.27313 -0 0 17.11081 -8.091812 7.97009 4.758435 6.140736 -20.70166 -0.1334168 -93.83297 22.58144 24.33427 0 0 -12.74638 12.7218 18.36899 -0.1088909
0.4799011 103.4568 3.413457 -0.4281626 0.7946903 -0.2053343 5.609713 -24.47502 9.147792 -0 32.91207 -0 -5.883042 -12.86604 -4.102916 -5.650775 11.83784 -21.85593 -0 5.872232 -0 3.729318 -21.52302 23.26051 -2.666801 -3.481381 5.602388 2.257414 10.06485 -7.427748 1.592702 21.70116 5.939904 2.324233 -24.59768 9.324355 5.907471 -19.88493 11.07314 84.99449 35.72872 -17.95732 -0 0 16.15537 -7.755616 8.559053 4.4009 6.526996 -20.74287 -0.3443707 -93.86502 23.51658 23.26141 0 0 -14.04249 12.00943 17.07689 0.6758512
0.7525675 103.1528 5.62938 -0.6081922 2.199044 -0.1219387 6.264692 -28.52574 8.79258 -0 28.08158 -0 -5.693688 -11.2948 -3.689378 -5.654022 12.10056 -20.75775 -0 5.500249 -0 4.651757 -22.35636 22.38209 -2.354616 -2.982565 5.136034 2.577927 9.914457 -7.67735 1.491345 21.2251 6.463304 2.794764 -25.18691 9.510166 6.135882 -19.15494 11.1954 85.60309 35.70056 -19.31171 -0 0 15.17717 -7.395897 8.976014 4.200116 6.761455 -20.78303 -0.5447996 -93.55074 23.93703 22.13792 0 0 -15.43359 11.7164 15.91812 0.9932004
1.032918 102.6513 8.342425 -0.7705496 3.549 0.1297001 6.827986 -32.277 8.242693 -0 23.02922 -0 -5.600137 -9.349314 -3.171301 -5.692367 12.58415 -19.5768 -0 5.716056 -0 5.415024 -23.01559 21.35467 -2.058893 -2.535755 4.683323 2.880827 9.734889 -7.928142 1.389344 20.75563 6.939717 3.231391 -25.69718 9.657132 6.335539 -18.46705 11.29097 86.1409 35.66487 -20.56174 -0 0 14.27644 -7.12597 9.401618 4.080821 7.017435 -20.83827 -0.7176772 -93.19253 24.29513 21.04705 0 0 -16.80292 11.45627 14.86428 1.273171
1.299036 102.0136 11.68452 -1.021935 4.621932 0.5795967 7.324359 -35.33514 7.46864 -0 18.47069 -0 -5.75975 -6.986171 -2.614523 -5.646381 13.35937 -18.31325 -0 6.992172 -0 5.512119 -23.37895 19.9886 -1.808961 -2.155245 4.293864 3.137009 9.575076 -8.148801 1.287287 20.3469 7.331555 3.594403 -26.08727 9.738006 6.458387 -17.88892 11.37534 86.5977 35.64834 -21.56162 -0 0 13.46915 -7.043567 9.799136 4.109439 7.229119 -20.9212 -0.8716196 -92.75973 24.47378 20.04829 0 0 -18.06733 11.26129 13.93761 1.46719
1.52698 101.35 15.78872 -1.411677 5.235062 1.233469 7.744955 -37.15023 6.506964 -0 15.02718 -0 -6.204271 -4.451157 -2.097806 -5.428442 14.40366 -17.00155 -0 9.758659 -0 4.467987 -23.1818 18.09082 -1.605744 -1.841777 3.980198 3.329429 9.452137 -8.33111 1.181986 20.01265 7.646247 3.899036 -26.33156 9.74285 6.524969 -17.40616 11.45039 86.97635 35.63512 -22.34263 -0 0 12.76532 -7.184886 10.1889 4.274815 7.403925 -21.03054 -1.013799 -92.31698 24.54624 19.17863 0 0 -19.15808 11.04684 13.13009 1.667467
1.699993 100.8223 20.74351 -1.938178 5.24275 2.036664 8.109956 -37.05721 5.517356 -0 13.30142 -0 -6.861201 -2.269476 -1.735539 -4.960501 15.49961 -15.68855 -0 14.3986 -0 1.950279 -21.97226 15.5603 -1.455594 -1.592881 3.758894 3.444755 9.389517 -8.46419 1.072363 19.77346 7.879559 4.143124 -26.41289 9.662655 6.537249 -17.02598 11.52301 87.28075 35.61846 -22.89169 -0 0 12.17057 -7.583739 10.56781 4.581697 7.523716 -21.16258 -1.153573 -91.89222 24.52599 18.4722 0 0 -20.01278 10.77353 12.43574 1.914863
1.822157 100.6311 26.50283 -2.543145 4.667989 2.838526 8.513896 -34.60325 4.863105 -0 13.63518 -0 -7.543486 -1.211373 -1.678136 -4.201108 16.07399 -14.42163 -0 21.05472 -0 -1.862439 -19.21811 12.60504 -1.363205 -1.404216 3.644358 3.471485 9.40454 -8.537181 0.9581114 19.64584 8.028128 4.325745 -26.31737 9.491223 6.500231 -16.75417 11.59798 87.50663 35.58742 -23.19487 -0 0 11.69961 -8.263493 10.93125 5.030546 7.572644 -21.30576 -1.298218 -91.51737 24.436 17.96669 0 0 -20.56777 10.3998 11.84758 2.254814
1.928743 100.9488 32.79672 -3.101987 3.81358 3.400039 8.99531 -30.08505 4.912311 -0 15.55361 -0 -8.049017 -1.902477 -1.987381 -3.244368 15.18092 -13.18889 -0 29.38401 -0 -5.85512 -14.74929 9.885623 -1.335672 -1.27111 3.655503 3.397727 9.511871 -8.533841 0.8407866 19.64665 8.085377 4.441189 -26.03514 9.225722 6.4116 -16.60803 11.67984 87.63684 35.53387 -23.20876 -0 0 11.38027 -9.24216 11.26378 5.625544 7.527746 -21.4421 -1.452137 -91.21578 24.28346 17.7044 0 0 -20.76332 9.89997 11.35549 2.715419
2.080289 101.8156 39.17543 -3.423226 3.059894 3.491826 9.361854 -24.78372 5.560865 -0 17.51263 -0 -8.394059 -4.07119 -2.42478 -2.411343 11.99164 -11.90722 -0 38.62652 -0 -8.202161 -9.43225 8.227121 -1.379757 -1.188452 3.813817 3.212382 9.717491 -8.432693 0.7245238 19.78669 8.04505 4.482433 -25.56501 8.870562 6.263738 -16.61393 11.77083 87.63731 35.45116 -22.8653 -0 0 11.25948 -10.52143 11.54154 6.368092 7.366122 -21.54523 -1.613911 -91.0065 24.06814 17.73076 0 0 -20.55489 9.265584 10.94298 3.307932
2.326671 103.1111 45.26954 -3.252564 2.2362 3.044159 9.214437 -19.93192 5.943988 -0 17.87884 -0 -8.810621 -6.358354 -2.535483 -2.123263 6.7175 -10.59283 -0 48.07652 -0 -7.832887 -5.150866 8.065127 -1.496621 -1.150199 4.137585 2.908677 10.01047 -8.210696 0.6162101 20.06035 7.905751 4.445432 -24.92106 8.440867 6.046055 -16.8013 11.86841 87.45765 35.33184 -22.08636 -0 0 11.40458 -12.07331 11.73817 7.250786 7.07566 -21.58041 -1.773195 -90.90524 23.78912 18.08816 0 0 -19.93274 8.510103 10.58535 4.0246
2.640941 104.6336 51.01124 -2.388089 0.5893651 2.249228 8.193632 -15.06354 5.216829 -0 16.45799 -0 -9.167276 -7.699403 -2.221231 -2.504091 0.5930598 -9.466488 -0 56.7843 -0 -5.982531 -3.395938 9.3367 -1.674873 -1.148544 4.629096 2.491076 10.35278 -7.853491 0.5237058 20.43336 7.677774 4.336486 -24.1384 7.96314 5.753002 -17.18616 11.9619 87.03972 35.16326 -20.82032 -0 0 11.89258 -13.82899 11.83817 8.251487 6.671091 -21.50729 -1.908871 -90.92634 23.46136 18.80199 0 0 -18.94071 7.66432 10.25257 4.846423
2.909839 106.1283 56.51207 -0.9789169 -1.91591 1.492535 6.518755 -8.821611 3.943221 -0 14.18808 -0 -8.736926 -8.431589 -1.945388 -3.016166 -5.615083 -8.53368 -0 62.21488 -0 -4.972461 -3.863327 11.55336 -1.889948 -1.174058 5.262608 1.982057 10.67801 -7.367322 0.4522826 20.84212 7.387759 4.176833 -23.27361 7.471281 5.392771 -17.75407 12.03222 86.33382 34.92874 -19.07784 -0 0 12.78245 -15.68377 11.84707 9.334139 6.200655 -21.28882 -1.992045 -91.07795 23.12591 19.85751 0 0 -17.68192 6.766627 9.916128 5.750816
3.073258 107.2746 61.85621 0.3370704 -4.151847 0.9807475 5.092834 -1.685838 3.374934 -0 11.76093 -0 -7.350726 -9.291909 -1.961487 -2.703289 -11.95186 -7.3296 -0 61.19252 -0 -5.15789 -4.97365 13.90793 -2.113341 -1.217827 5.98526 1.422033 10.90909 -6.782996 0.4022031 21.2124 7.07598 3.998424 -22.39666 7.000442 4.988745 -18.45881 12.05798 85.31766 34.6178 -16.93694 -0 0 14.08222 -17.51995 11.78691 10.45557 5.731453 -20.90651 -1.995509 -91.34915 22.83734 21.17957 0 0 -16.30422 5.859756 9.555913 6.70596
3.220161 107.8036 67.09835 0.9099529 -5.221051 0.5579828 4.565176 4.450429 3.553141 -0 9.635052 -0 -5.915815 -10.65263 -1.912019 -1.135621 -18.01818 -5.569706 -0 53.30671 -0 -5.189552 -5.501189 15.75998 -2.322595 -1.273376 6.731418 0.8603379 10.98901 -6.149189 0.3698812 21.48559 6.785854 3.832768 -21.57684 6.581733 4.571452 -19.23735 12.02566 84.01649 34.23555 -14.52457 -0 0 15.7287 -19.23257 11.68197 11.57083 5.322157 -20.37486 -1.906956 -91.70011 22.63572 22.63485 0 0 -14.9719 4.994245 9.164668 7.660036
3.477315 107.6502 72.31761 0.6843541 -5.19419 0.05127067 4.776268 8.751236 3.769625 -0 8.3497 -0 -5.093613 -12.64094 -1.509725 1.130337 -22.90496 -3.625173 -0 41.5394 -0 -4.421975 -5.285554 16.90299 -2.503848 -1.33479 7.438502 0.3428311 10.90467 -5.520863 0.3509274 21.63536 6.551617 3.701566 -20.86786 6.23736 4.170061 -20.02439 11.93721 82.51613 33.80098 -12.00205 -0 0 17.5889 -20.74588 11.55072 12.63436 5.003542 -19.74295 -1.73888 -92.06898 22.53166 24.06186 0 0 -13.82907 4.219834 8.747992 8.551743
3.899798 106.9478 77.64692 0.09021232 -4.624805 -0.5505712 5.092151 11.69678 3.702712 -0 8.250364 -0 -4.681159 -14.93767 -0.8843044 3.077548 -26.05209 -2.170223 -0 29.69157 -0 -3.296124 -4.796345 17.5048 -2.650326 -1.392364 8.057437 -0.09747624 10.68962 -4.947142 0.3424079 21.66938 6.390641 3.613571 -20.29841 5.977254 3.80976 -20.75941 11.81095 80.95211 33.33846 -9.550352 -0 0 19.48489 -22.01882 11.40629 13.60132 4.775377 -19.07895 -1.527689 -92.39293 22.51295 25.31246 0 0 -12.96446 3.565007 8.31825 9.33809
4.481611 105.9344 83.2705 -0.3987153 -4.023836 -1.197323 4.949463 14.05924 3.442735 -0 9.443908 -0 -4.200368 -16.70581 -0.2733605 3.906438 -27.49542 -1.686719 -0 20.49138 -0 -2.476929 -4.545935 17.88264 -2.760655 -1.430749 8.555359 -0.4422008 10.40832 -4.464173 0.3434314 21.61993 6.303038 3.566193 -19.87389 5.800104 3.513179 -21.38885 11.67638 79.48156 32.87305 -7.352318 -0 0 21.22662 -23.03654 11.25948 14.42848 4.616075 -18.4505 -1.322714 -92.62664 22.5572 26.27907 0 0 -12.39938 3.028092 7.888467 10.00826
5.194565 104.8782 89.3687 -0.4915203 -3.686785 -1.828753 4.122945 16.28577 3.202648 -0 12.02466 -0 -3.394816 -16.90894 0.182743 3.360599 -27.59797 -2.230385 -0 15.2304 -0 -2.332998 -4.819945 18.28718 -2.837017 -1.431052 8.911749 -0.6830639 10.13583 -4.095923 0.3541802 21.53083 6.276131 3.54915 -19.58498 5.696991 3.301821 -21.86501 11.56691 78.25924 32.43054 -5.582241 -0 0 22.6339 -23.79614 11.1221 15.07453 4.496415 -17.91429 -1.173593 -92.74734 22.63892 26.89799 0 0 -12.10209 2.58561 7.470863 10.5756
6.006244 104.0357 96.03493 -0.1282545 -3.713814 -2.360111 2.748914 18.31335 3.159186 -0 16.19979 -0 -2.338308 -14.77107 0.3987911 1.713167 -26.7438 -3.475912 -0 13.88225 -0 -2.79301 -5.626368 18.798 -2.883061 -1.374929 9.113042 -0.8164416 9.940654 -3.858714 0.3743697 21.44532 6.290598 3.548744 -19.41554 5.654693 3.195047 -22.14495 11.51232 77.42068 32.03632 -4.397653 -0 0 23.5505 -24.29823 11.00983 15.50307 4.390659 -17.51316 -1.121116 -92.74924 22.73308 27.13867 0 0 -12.01462 2.205562 7.076536 11.06286
